STARTFONT 2.1
COMMENT Silicon Graphics FREE font
FONT -SGI-Haeberli-Medium-R-Normal--12-120-72-72-P-63-ISO8859-1
SIZE 12 72 72
FONTBOUNDINGBOX 9 12 0 -2
STARTPROPERTIES 22
_DEC_DEVICE_FONTNAMES "FM=Haeberli"
FONTNAME_REGISTRY ""
FOUNDRY "SGI"
FAMILY_NAME "Haeberli"
WEIGHT_NAME "Medium"
SLANT "R"
SETWIDTH_NAME "Normal"
ADD_STYLE_NAME ""
PIXEL_SIZE 12
POINT_SIZE 120
RESOLUTION_X 72
RESOLUTION_Y 72
SPACING "P"
AVERAGE_WIDTH 63
CHARSET_REGISTRY "ISO8859"
CHARSET_ENCODING "1"
CHARSET_COLLECTIONS "ASCII ISO8859-1"
FULL_NAME "Haeberli"
CAP_HEIGHT 8
FONT_ASCENT 10
FONT_DESCENT 2
X_HEIGHT 6
ENDPROPERTIES
CHARS 190
STARTCHAR space
ENCODING 32
SWIDTH 432 0
DWIDTH 5 0
BBX 1 1 0 0
BITMAP
00
ENDCHAR
STARTCHAR exclam
ENCODING 33
SWIDTH 250 0
DWIDTH 3 0
BBX 1 8 2 0
BITMAP
80
80
80
80
80
80
00
80
ENDCHAR
STARTCHAR quotedbl
ENCODING 34
SWIDTH 393 0
DWIDTH 5 0
BBX 3 3 3 6
BITMAP
a0
a0
20
ENDCHAR
STARTCHAR numbersign
ENCODING 35
SWIDTH 595 0
DWIDTH 7 0
BBX 5 6 2 2
BITMAP
50
f8
50
f8
50
40
ENDCHAR
STARTCHAR dollar
ENCODING 36
SWIDTH 612 0
DWIDTH 7 0
BBX 6 10 1 -1
BITMAP
28
78
ac
a8
68
38
2c
ac
78
28
ENDCHAR
STARTCHAR percent
ENCODING 37
SWIDTH 655 0
DWIDTH 8 0
BBX 7 8 1 0
BITMAP
42
e4
ac
d8
16
2a
6c
40
ENDCHAR
STARTCHAR ampersand
ENCODING 38
SWIDTH 666 0
DWIDTH 8 0
BBX 7 8 1 0
BITMAP
70
50
30
30
5a
4c
9c
f0
ENDCHAR
STARTCHAR quoteright
ENCODING 39
SWIDTH 241 0
DWIDTH 3 0
BBX 2 3 3 6
BITMAP
40
c0
80
ENDCHAR
STARTCHAR parenleft
ENCODING 40
SWIDTH 334 0
DWIDTH 4 0
BBX 3 9 1 -1
BITMAP
40
c0
80
80
80
c0
40
60
20
ENDCHAR
STARTCHAR parenright
ENCODING 41
SWIDTH 299 0
DWIDTH 4 0
BBX 3 10 1 -1
BITMAP
80
c0
40
40
60
60
40
40
40
80
ENDCHAR
STARTCHAR asterisk
ENCODING 42
SWIDTH 596 0
DWIDTH 7 0
BBX 6 5 1 2
BITMAP
48
70
fc
f0
58
ENDCHAR
STARTCHAR plus
ENCODING 43
SWIDTH 530 0
DWIDTH 6 0
BBX 5 6 1 1
BITMAP
20
20
f8
70
20
20
ENDCHAR
STARTCHAR comma
ENCODING 44
SWIDTH 530 0
DWIDTH 6 0
BBX 2 3 3 -2
BITMAP
40
40
80
ENDCHAR
STARTCHAR minus
ENCODING 45
SWIDTH 545 0
DWIDTH 7 0
BBX 5 1 1 3
BITMAP
f8
ENDCHAR
STARTCHAR period
ENCODING 46
SWIDTH 219 0
DWIDTH 3 0
BBX 1 2 4 0
BITMAP
80
80
ENDCHAR
STARTCHAR slash
ENCODING 47
SWIDTH 512 0
DWIDTH 6 0
BBX 5 8 1 0
BITMAP
08
18
10
30
20
60
40
80
ENDCHAR
STARTCHAR zero
ENCODING 48
SWIDTH 596 0
DWIDTH 7 0
BBX 6 8 1 0
BITMAP
38
6c
44
84
84
cc
68
30
ENDCHAR
STARTCHAR one
ENCODING 49
SWIDTH 291 0
DWIDTH 3 0
BBX 2 8 1 0
BITMAP
40
c0
40
40
40
40
40
40
ENDCHAR
STARTCHAR two
ENCODING 50
SWIDTH 588 0
DWIDTH 7 0
BBX 6 8 1 0
BITMAP
38
ec
0c
08
10
60
fc
fc
ENDCHAR
STARTCHAR three
ENCODING 51
SWIDTH 594 0
DWIDTH 7 0
BBX 6 8 1 0
BITMAP
fc
18
30
7c
04
04
cc
78
ENDCHAR
STARTCHAR four
ENCODING 52
SWIDTH 681 0
DWIDTH 8 0
BBX 7 9 1 0
BITMAP
04
0c
1c
34
24
5e
fc
04
04
ENDCHAR
STARTCHAR five
ENCODING 53
SWIDTH 616 0
DWIDTH 7 0
BBX 6 8 1 0
BITMAP
7c
40
40
78
04
04
dc
70
ENDCHAR
STARTCHAR six
ENCODING 54
SWIDTH 498 0
DWIDTH 6 0
BBX 5 8 1 0
BITMAP
10
20
60
70
c8
88
98
60
ENDCHAR
STARTCHAR seven
ENCODING 55
SWIDTH 554 0
DWIDTH 7 0
BBX 5 8 1 0
BITMAP
f8
08
08
38
10
30
20
20
ENDCHAR
STARTCHAR eight
ENCODING 56
SWIDTH 541 0
DWIDTH 6 0
BBX 6 8 1 0
BITMAP
30
48
48
70
68
cc
d8
70
ENDCHAR
STARTCHAR nine
ENCODING 57
SWIDTH 565 0
DWIDTH 7 0
BBX 6 8 1 0
BITMAP
3c
6c
8c
8c
f4
04
04
0c
ENDCHAR
STARTCHAR colon
ENCODING 58
SWIDTH 271 0
DWIDTH 3 0
BBX 1 5 2 0
BITMAP
80
00
00
80
80
ENDCHAR
STARTCHAR semicolon
ENCODING 59
SWIDTH 271 0
DWIDTH 3 0
BBX 2 7 1 -2
BITMAP
c0
00
00
40
40
c0
80
ENDCHAR
STARTCHAR less
ENCODING 60
SWIDTH 587 0
DWIDTH 7 0
BBX 6 10 1 -1
BITMAP
04
0c
18
20
c0
e0
30
18
0c
04
ENDCHAR
STARTCHAR equal
ENCODING 61
SWIDTH 562 0
DWIDTH 7 0
BBX 5 4 1 2
BITMAP
08
f8
00
78
ENDCHAR
STARTCHAR greater
ENCODING 62
SWIDTH 522 0
DWIDTH 6 0
BBX 5 9 1 0
BITMAP
80
c0
60
30
08
18
30
20
40
ENDCHAR
STARTCHAR question
ENCODING 63
SWIDTH 582 0
DWIDTH 7 0
BBX 6 8 1 0
BITMAP
78
84
0c
18
30
10
00
10
ENDCHAR
STARTCHAR at
ENCODING 64
SWIDTH 721 0
DWIDTH 9 0
BBX 8 9 1 -2
BITMAP
3c
62
df
af
ae
be
40
7c
10
ENDCHAR
STARTCHAR A
ENCODING 65
SWIDTH 790 0
DWIDTH 9 0
BBX 8 8 1 0
BITMAP
08
1c
14
7e
22
43
41
81
ENDCHAR
STARTCHAR B
ENCODING 66
SWIDTH 606 0
DWIDTH 7 0
BBX 6 8 1 0
BITMAP
f0
d8
d0
78
44
c4
cc
f0
ENDCHAR
STARTCHAR C
ENCODING 67
SWIDTH 609 0
DWIDTH 7 0
BBX 6 8 1 0
BITMAP
38
40
c0
80
80
80
6c
38
ENDCHAR
STARTCHAR D
ENCODING 68
SWIDTH 600 0
DWIDTH 7 0
BBX 6 8 1 0
BITMAP
e0
b8
8c
84
84
88
b0
c0
ENDCHAR
STARTCHAR E
ENCODING 69
SWIDTH 623 0
DWIDTH 7 0
BBX 7 8 1 0
BITMAP
7e
40
c0
f8
c0
c0
f8
f8
ENDCHAR
STARTCHAR F
ENCODING 70
SWIDTH 518 0
DWIDTH 6 0
BBX 5 8 1 0
BITMAP
f8
c0
40
70
40
c0
80
80
ENDCHAR
STARTCHAR G
ENCODING 71
SWIDTH 699 0
DWIDTH 8 0
BBX 7 8 1 0
BITMAP
38
44
80
80
9e
c4
4c
38
ENDCHAR
STARTCHAR H
ENCODING 72
SWIDTH 518 0
DWIDTH 6 0
BBX 5 9 1 0
BITMAP
08
88
c8
c8
f8
d8
c8
88
88
ENDCHAR
STARTCHAR I
ENCODING 73
SWIDTH 194 0
DWIDTH 2 0
BBX 1 8 1 0
BITMAP
80
80
80
80
80
80
80
80
ENDCHAR
STARTCHAR J
ENCODING 74
SWIDTH 570 0
DWIDTH 7 0
BBX 6 8 1 0
BITMAP
7c
18
18
18
18
98
d0
70
ENDCHAR
STARTCHAR K
ENCODING 75
SWIDTH 554 0
DWIDTH 7 0
BBX 6 8 1 0
BITMAP
88
98
b0
a0
e0
90
88
8c
ENDCHAR
STARTCHAR L
ENCODING 76
SWIDTH 571 0
DWIDTH 7 0
BBX 6 8 1 0
BITMAP
80
80
80
c0
c0
80
84
f8
ENDCHAR
STARTCHAR M
ENCODING 77
SWIDTH 589 0
DWIDTH 7 0
BBX 6 8 1 0
BITMAP
4c
cc
ec
bc
b4
84
84
84
ENDCHAR
STARTCHAR N
ENCODING 78
SWIDTH 492 0
DWIDTH 6 0
BBX 5 8 1 0
BITMAP
88
c8
c8
a8
a8
98
98
88
ENDCHAR
STARTCHAR O
ENCODING 79
SWIDTH 590 0
DWIDTH 7 0
BBX 6 8 1 0
BITMAP
30
68
44
84
84
c4
78
30
ENDCHAR
STARTCHAR P
ENCODING 80
SWIDTH 556 0
DWIDTH 7 0
BBX 6 8 1 0
BITMAP
e0
f8
4c
4c
78
40
40
40
ENDCHAR
STARTCHAR Q
ENCODING 81
SWIDTH 675 0
DWIDTH 8 0
BBX 7 8 1 0
BITMAP
38
64
c4
86
8e
cc
6e
32
ENDCHAR
STARTCHAR R
ENCODING 82
SWIDTH 565 0
DWIDTH 7 0
BBX 6 8 1 0
BITMAP
f0
8c
84
98
f0
90
88
8c
ENDCHAR
STARTCHAR S
ENCODING 83
SWIDTH 545 0
DWIDTH 7 0
BBX 6 8 1 0
BITMAP
38
4c
40
70
18
88
d8
70
ENDCHAR
STARTCHAR T
ENCODING 84
SWIDTH 736 0
DWIDTH 9 0
BBX 8 8 1 0
BITMAP
ff
18
18
18
18
08
08
08
ENDCHAR
STARTCHAR U
ENCODING 85
SWIDTH 561 0
DWIDTH 7 0
BBX 6 8 1 0
BITMAP
88
8c
8c
8c
8c
88
90
60
ENDCHAR
STARTCHAR V
ENCODING 86
SWIDTH 748 0
DWIDTH 9 0
BBX 8 9 1 0
BITMAP
01
83
42
42
24
24
18
18
10
ENDCHAR
STARTCHAR W
ENCODING 87
SWIDTH 869 0
DWIDTH 10 0
BBX 9 8 0 0
BITMAP
8080
c080
4080
2500
2d00
3f00
1b00
1200
ENDCHAR
STARTCHAR X
ENCODING 88
SWIDTH 658 0
DWIDTH 8 0
BBX 7 8 1 0
BITMAP
84
4c
28
10
38
2c
44
02
ENDCHAR
STARTCHAR Y
ENCODING 89
SWIDTH 669 0
DWIDTH 8 0
BBX 7 9 1 0
BITMAP
02
86
44
28
38
10
10
10
10
ENDCHAR
STARTCHAR Z
ENCODING 90
SWIDTH 686 0
DWIDTH 8 0
BBX 7 8 1 0
BITMAP
fe
04
0c
18
30
20
5e
fe
ENDCHAR
STARTCHAR bracketleft
ENCODING 91
SWIDTH 330 0
DWIDTH 4 0
BBX 3 10 1 -1
BITMAP
e0
80
80
80
80
80
80
80
80
e0
ENDCHAR
STARTCHAR backslash
ENCODING 92
SWIDTH 602 0
DWIDTH 7 0
BBX 6 9 1 0
BITMAP
80
c0
40
20
30
10
08
08
04
ENDCHAR
STARTCHAR bracketright
ENCODING 93
SWIDTH 349 0
DWIDTH 4 0
BBX 3 10 1 -1
BITMAP
e0
20
20
20
20
20
20
20
20
e0
ENDCHAR
STARTCHAR asciicircum
ENCODING 94
SWIDTH 573 0
DWIDTH 7 0
BBX 6 4 1 4
BITMAP
30
78
cc
04
ENDCHAR
STARTCHAR underscore
ENCODING 95
SWIDTH 725 0
DWIDTH 9 0
BBX 8 2 1 -1
BITMAP
ff
40
ENDCHAR
STARTCHAR quoteleft
ENCODING 96
SWIDTH 284 0
DWIDTH 3 0
BBX 2 3 1 6
BITMAP
80
c0
40
ENDCHAR
STARTCHAR a
ENCODING 97
SWIDTH 564 0
DWIDTH 7 0
BBX 6 6 1 0
BITMAP
70
08
78
8c
8c
7c
ENDCHAR
STARTCHAR b
ENCODING 98
SWIDTH 494 0
DWIDTH 6 0
BBX 5 8 1 0
BITMAP
80
80
c0
f0
48
c8
d0
e0
ENDCHAR
STARTCHAR c
ENCODING 99
SWIDTH 530 0
DWIDTH 6 0
BBX 5 6 1 0
BITMAP
78
c8
80
80
c0
78
ENDCHAR
STARTCHAR d
ENCODING 100
SWIDTH 586 0
DWIDTH 7 0
BBX 6 8 1 0
BITMAP
04
04
04
74
cc
84
c4
7c
ENDCHAR
STARTCHAR e
ENCODING 101
SWIDTH 545 0
DWIDTH 7 0
BBX 5 6 1 0
BITMAP
70
d8
b0
c0
c8
70
ENDCHAR
STARTCHAR f
ENCODING 102
SWIDTH 537 0
DWIDTH 6 0
BBX 5 8 1 0
BITMAP
18
20
20
f0
f0
20
60
60
ENDCHAR
STARTCHAR g
ENCODING 103
SWIDTH 565 0
DWIDTH 7 0
BBX 6 7 1 -2
BITMAP
3c
64
c4
9c
7c
04
78
ENDCHAR
STARTCHAR h
ENCODING 104
SWIDTH 479 0
DWIDTH 6 0
BBX 5 8 1 0
BITMAP
80
80
80
f0
98
88
98
90
ENDCHAR
STARTCHAR i
ENCODING 105
SWIDTH 280 0
DWIDTH 3 0
BBX 2 8 1 0
BITMAP
40
40
00
c0
40
40
40
40
ENDCHAR
STARTCHAR j
ENCODING 106
SWIDTH 464 0
DWIDTH 6 0
BBX 4 10 1 -2
BITMAP
20
10
00
10
10
10
10
10
b0
60
ENDCHAR
STARTCHAR k
ENCODING 107
SWIDTH 483 0
DWIDTH 6 0
BBX 5 8 1 0
BITMAP
80
80
90
90
e0
f0
d0
08
ENDCHAR
STARTCHAR l
ENCODING 108
SWIDTH 189 0
DWIDTH 2 0
BBX 1 8 1 0
BITMAP
80
80
80
80
80
80
80
80
ENDCHAR
STARTCHAR m
ENCODING 109
SWIDTH 688 0
DWIDTH 8 0
BBX 7 6 1 0
BITMAP
50
fe
da
da
9a
9a
ENDCHAR
STARTCHAR n
ENCODING 110
SWIDTH 498 0
DWIDTH 6 0
BBX 5 6 1 0
BITMAP
b0
f8
c8
c8
88
88
ENDCHAR
STARTCHAR o
ENCODING 111
SWIDTH 553 0
DWIDTH 7 0
BBX 6 6 1 0
BITMAP
30
68
cc
88
98
70
ENDCHAR
STARTCHAR p
ENCODING 112
SWIDTH 530 0
DWIDTH 6 0
BBX 5 7 1 -2
BITMAP
f0
98
88
98
f0
80
80
ENDCHAR
STARTCHAR q
ENCODING 113
SWIDTH 607 0
DWIDTH 7 0
BBX 6 7 1 -2
BITMAP
38
68
88
98
78
18
1c
ENDCHAR
STARTCHAR r
ENCODING 114
SWIDTH 450 0
DWIDTH 5 0
BBX 4 6 1 0
BITMAP
90
e0
c0
80
80
80
ENDCHAR
STARTCHAR s
ENCODING 115
SWIDTH 493 0
DWIDTH 6 0
BBX 5 6 1 0
BITMAP
70
c0
70
88
d8
70
ENDCHAR
STARTCHAR t
ENCODING 116
SWIDTH 531 0
DWIDTH 6 0
BBX 5 7 1 0
BITMAP
60
f0
60
60
68
38
30
ENDCHAR
STARTCHAR u
ENCODING 117
SWIDTH 573 0
DWIDTH 7 0
BBX 6 6 1 0
BITMAP
98
98
88
98
b8
ec
ENDCHAR
STARTCHAR v
ENCODING 118
SWIDTH 599 0
DWIDTH 7 0
BBX 6 6 1 0
BITMAP
84
84
48
78
30
20
ENDCHAR
STARTCHAR w
ENCODING 119
SWIDTH 698 0
DWIDTH 8 0
BBX 7 5 1 0
BITMAP
82
d2
5e
6c
40
ENDCHAR
STARTCHAR x
ENCODING 120
SWIDTH 548 0
DWIDTH 7 0
BBX 6 6 1 0
BITMAP
84
48
30
30
48
88
ENDCHAR
STARTCHAR y
ENCODING 121
SWIDTH 626 0
DWIDTH 8 0
BBX 6 7 1 -2
BITMAP
84
44
28
38
18
10
30
ENDCHAR
STARTCHAR z
ENCODING 122
SWIDTH 595 0
DWIDTH 7 0
BBX 6 5 1 0
BITMAP
fc
18
30
60
7c
ENDCHAR
STARTCHAR braceleft
ENCODING 123
SWIDTH 377 0
DWIDTH 5 0
BBX 3 9 1 0
BITMAP
20
40
40
40
c0
40
40
40
60
ENDCHAR
STARTCHAR bar
ENCODING 124
SWIDTH 212 0
DWIDTH 3 0
BBX 2 9 1 0
BITMAP
80
80
80
80
80
80
80
c0
c0
ENDCHAR
STARTCHAR braceright
ENCODING 125
SWIDTH 348 0
DWIDTH 4 0
BBX 3 10 1 -1
BITMAP
c0
40
40
40
60
60
60
20
60
c0
ENDCHAR
STARTCHAR asciitilde
ENCODING 126
SWIDTH 622 0
DWIDTH 7 0
BBX 6 3 1 3
BITMAP
40
f4
9c
ENDCHAR
STARTCHAR exclamdown
ENCODING 161
SWIDTH 250 0
DWIDTH 3 0
BBX 1 8 2 -2
BITMAP
80
00
80
80
80
80
80
80
ENDCHAR
STARTCHAR cent
ENCODING 162
SWIDTH 530 0
DWIDTH 6 0
BBX 5 8 1 0
BITMAP
20
20
78
88
80
78
20
20
ENDCHAR
STARTCHAR sterling
ENCODING 163
SWIDTH 750 0
DWIDTH 9 0
BBX 6 9 2 0
BITMAP
38
44
40
40
f0
40
40
44
b8
ENDCHAR
STARTCHAR currency
ENCODING 164
SWIDTH 750 0
DWIDTH 9 0
BBX 4 6 2 2
BITMAP
90
60
90
90
60
50
ENDCHAR
STARTCHAR yen
ENCODING 165
SWIDTH 750 0
DWIDTH 9 0
BBX 7 9 1 0
BITMAP
82
46
64
28
7c
10
7c
10
38
ENDCHAR
STARTCHAR brokenbar
ENCODING 166
SWIDTH 212 0
DWIDTH 3 0
BBX 2 9 5 0
BITMAP
80
80
80
80
00
80
80
c0
c0
ENDCHAR
STARTCHAR section
ENCODING 167
SWIDTH 750 0
DWIDTH 9 0
BBX 6 11 2 -1
BITMAP
78
cc
40
b0
88
c4
64
3c
08
c4
78
ENDCHAR
STARTCHAR dieresis
ENCODING 168
SWIDTH 750 0
DWIDTH 9 0
BBX 3 1 3 8
BITMAP
a0
ENDCHAR
STARTCHAR copyright
ENCODING 169
SWIDTH 750 0
DWIDTH 9 0
BBX 7 7 1 0
BITMAP
7c
82
ba
a2
ba
82
7c
ENDCHAR
STARTCHAR ordfeminine
ENCODING 170
SWIDTH 564 0
DWIDTH 7 0
BBX 4 6 2 4
BITMAP
60
10
70
90
70
f0
ENDCHAR
STARTCHAR guillemotleft
ENCODING 171
SWIDTH 750 0
DWIDTH 9 0
BBX 6 6 1 0
BITMAP
24
4c
90
90
48
24
ENDCHAR
STARTCHAR logicalnot
ENCODING 172
SWIDTH 750 0
DWIDTH 9 0
BBX 5 2 2 3
BITMAP
f8
08
ENDCHAR
STARTCHAR hyphen
ENCODING 173
SWIDTH 750 0
DWIDTH 9 0
BBX 4 1 2 3
BITMAP
f0
ENDCHAR
STARTCHAR registered
ENCODING 174
SWIDTH 750 0
DWIDTH 9 0
BBX 7 7 1 0
BITMAP
7c
82
b2
b2
aa
82
7c
ENDCHAR
STARTCHAR macron
ENCODING 175
SWIDTH 750 0
DWIDTH 9 0
BBX 3 1 3 7
BITMAP
e0
ENDCHAR
STARTCHAR degree
ENCODING 176
SWIDTH 750 0
DWIDTH 9 0
BBX 4 3 2 4
BITMAP
60
90
60
ENDCHAR
STARTCHAR plusminus
ENCODING 177
SWIDTH 530 0
DWIDTH 6 0
BBX 5 8 1 0
BITMAP
20
20
f8
70
20
20
00
f8
ENDCHAR
STARTCHAR twosuperior
ENCODING 178
SWIDTH 750 0
DWIDTH 9 0
BBX 3 5 3 4
BITMAP
40
a0
20
40
e0
ENDCHAR
STARTCHAR threesuperior
ENCODING 179
SWIDTH 750 0
DWIDTH 9 0
BBX 3 5 3 4
BITMAP
c0
20
40
20
c0
ENDCHAR
STARTCHAR acute
ENCODING 180
SWIDTH 750 0
DWIDTH 9 0
BBX 2 2 4 7
BITMAP
40
80
ENDCHAR
STARTCHAR mu
ENCODING 181
SWIDTH 573 0
DWIDTH 7 0
BBX 6 8 1 -2
BITMAP
98
98
88
98
b8
ec
80
80
ENDCHAR
STARTCHAR paragraph
ENCODING 182
SWIDTH 750 0
DWIDTH 9 0
BBX 7 10 0 -1
BITMAP
7e
a4
a4
a4
64
24
24
24
24
24
ENDCHAR
STARTCHAR periodcentered
ENCODING 183
SWIDTH 750 0
DWIDTH 9 0
BBX 1 2 4 3
BITMAP
80
80
ENDCHAR
STARTCHAR cedilla
ENCODING 184
SWIDTH 750 0
DWIDTH 9 0
BBX 2 2 3 -2
BITMAP
40
c0
ENDCHAR
STARTCHAR onesuperior
ENCODING 185
SWIDTH 750 0
DWIDTH 9 0
BBX 3 5 3 4
BITMAP
40
c0
40
40
e0
ENDCHAR
STARTCHAR ordmasculine
ENCODING 186
SWIDTH 564 0
DWIDTH 7 0
BBX 4 5 2 4
BITMAP
60
90
90
60
f0
ENDCHAR
STARTCHAR guillemotright
ENCODING 187
SWIDTH 750 0
DWIDTH 9 0
BBX 6 6 1 0
BITMAP
90
c8
24
24
48
90
ENDCHAR
STARTCHAR onequarter
ENCODING 188
SWIDTH 750 0
DWIDTH 9 0
BBX 6 9 1 0
BITMAP
40
c0
44
48
f4
2c
54
9c
04
ENDCHAR
STARTCHAR onehalf
ENCODING 189
SWIDTH 750 0
DWIDTH 9 0
BBX 6 10 1 -1
BITMAP
40
c0
44
48
f0
28
54
84
08
1c
ENDCHAR
STARTCHAR threequarters
ENCODING 190
SWIDTH 750 0
DWIDTH 9 0
BBX 6 9 1 0
BITMAP
c0
20
44
28
d4
2c
54
9c
04
ENDCHAR
STARTCHAR questiondown
ENCODING 191
SWIDTH 582 0
DWIDTH 7 0
BBX 6 8 2 -2
BITMAP
20
00
20
30
60
c0
84
78
ENDCHAR
STARTCHAR Agrave
ENCODING 192
SWIDTH 790 0
DWIDTH 9 0
BBX 7 10 2 0
BITMAP
20
10
00
10
38
28
fc
44
86
82
ENDCHAR
STARTCHAR Aacute
ENCODING 193
SWIDTH 790 0
DWIDTH 9 0
BBX 7 10 2 0
BITMAP
08
10
00
10
38
28
fc
44
86
82
ENDCHAR
STARTCHAR Acircumflex
ENCODING 194
SWIDTH 790 0
DWIDTH 9 0
BBX 7 10 2 0
BITMAP
10
28
00
10
38
28
fc
44
86
82
ENDCHAR
STARTCHAR Atilde
ENCODING 195
SWIDTH 790 0
DWIDTH 9 0
BBX 7 10 2 0
BITMAP
34
58
00
10
38
28
fc
44
86
82
ENDCHAR
STARTCHAR Adieresis
ENCODING 196
SWIDTH 790 0
DWIDTH 9 0
BBX 7 9 2 0
BITMAP
6c
00
10
38
28
fc
44
86
82
ENDCHAR
STARTCHAR Aring
ENCODING 197
SWIDTH 790 0
DWIDTH 9 0
BBX 7 10 2 0
BITMAP
10
28
10
10
38
28
fc
44
86
82
ENDCHAR
STARTCHAR AE
ENCODING 198
SWIDTH 623 0
DWIDTH 7 0
BBX 8 8 0 0
BITMAP
1f
28
48
4e
78
88
9f
9f
ENDCHAR
STARTCHAR Ccedilla
ENCODING 199
SWIDTH 609 0
DWIDTH 7 0
BBX 6 10 1 -2
BITMAP
38
40
c0
80
80
80
6c
38
10
30
ENDCHAR
STARTCHAR Egrave
ENCODING 200
SWIDTH 623 0
DWIDTH 7 0
BBX 6 10 1 0
BITMAP
20
10
00
7c
c0
c0
f8
c0
c0
fc
ENDCHAR
STARTCHAR Eacute
ENCODING 201
SWIDTH 623 0
DWIDTH 7 0
BBX 6 10 1 0
BITMAP
08
10
00
7c
c0
c0
f8
c0
c0
fc
ENDCHAR
STARTCHAR Ecircumflex
ENCODING 202
SWIDTH 623 0
DWIDTH 7 0
BBX 6 10 1 0
BITMAP
10
28
00
7c
c0
c0
f8
c0
c0
fc
ENDCHAR
STARTCHAR Edieresis
ENCODING 203
SWIDTH 623 0
DWIDTH 7 0
BBX 6 9 1 0
BITMAP
6c
00
7c
c0
c0
f8
c0
c0
fc
ENDCHAR
STARTCHAR Igrave
ENCODING 204
SWIDTH 194 0
DWIDTH 2 0
BBX 2 10 2 0
BITMAP
80
40
00
40
40
40
40
40
40
40
ENDCHAR
STARTCHAR Iacute
ENCODING 205
SWIDTH 194 0
DWIDTH 2 0
BBX 2 10 3 0
BITMAP
40
80
00
80
80
80
80
80
80
80
ENDCHAR
STARTCHAR Icircumflex
ENCODING 206
SWIDTH 194 0
DWIDTH 2 0
BBX 3 10 2 0
BITMAP
40
a0
00
40
40
40
40
40
40
40
ENDCHAR
STARTCHAR Idieresis
ENCODING 207
SWIDTH 194 0
DWIDTH 2 0
BBX 5 9 1 0
BITMAP
d8
00
20
20
20
20
20
20
20
ENDCHAR
STARTCHAR Eth
ENCODING 208
SWIDTH 600 0
DWIDTH 7 0
BBX 7 8 0 0
BITMAP
70
5c
46
f2
42
44
58
60
ENDCHAR
STARTCHAR Ntilde
ENCODING 209
SWIDTH 492 0
DWIDTH 6 0
BBX 5 10 1 0
BITMAP
68
b0
00
88
c8
a8
a8
98
98
88
ENDCHAR
STARTCHAR Ograve
ENCODING 210
SWIDTH 590 0
DWIDTH 7 0
BBX 6 10 1 0
BITMAP
20
10
00
78
44
84
84
c4
78
30
ENDCHAR
STARTCHAR Oacute
ENCODING 211
SWIDTH 590 0
DWIDTH 7 0
BBX 6 10 1 0
BITMAP
08
10
00
78
44
84
84
c4
78
30
ENDCHAR
STARTCHAR Ocircumflex
ENCODING 212
SWIDTH 590 0
DWIDTH 7 0
BBX 6 10 1 0
BITMAP
10
28
00
78
44
84
84
c4
78
30
ENDCHAR
STARTCHAR Otilde
ENCODING 213
SWIDTH 590 0
DWIDTH 7 0
BBX 6 10 1 0
BITMAP
34
58
00
78
44
84
84
c4
78
30
ENDCHAR
STARTCHAR Odieresis
ENCODING 214
SWIDTH 590 0
DWIDTH 7 0
BBX 6 9 1 0
BITMAP
6c
00
78
44
84
84
c4
78
30
ENDCHAR
STARTCHAR multiply
ENCODING 215
SWIDTH 750 0
DWIDTH 9 0
BBX 6 6 2 0
BITMAP
88
48
30
30
48
84
ENDCHAR
STARTCHAR Oslash
ENCODING 216
SWIDTH 590 0
DWIDTH 7 0
BBX 7 8 1 0
BITMAP
32
6c
4c
94
a4
c4
78
b0
ENDCHAR
STARTCHAR Ugrave
ENCODING 217
SWIDTH 561 0
DWIDTH 7 0
BBX 6 10 1 0
BITMAP
40
20
00
8c
8c
8c
8c
88
90
60
ENDCHAR
STARTCHAR Uacute
ENCODING 218
SWIDTH 561 0
DWIDTH 7 0
BBX 6 10 1 0
BITMAP
10
20
00
8c
8c
8c
8c
88
90
60
ENDCHAR
STARTCHAR Ucircumflex
ENCODING 219
SWIDTH 561 0
DWIDTH 7 0
BBX 6 10 1 0
BITMAP
20
50
00
8c
8c
8c
8c
88
90
60
ENDCHAR
STARTCHAR Udieresis
ENCODING 220
SWIDTH 561 0
DWIDTH 7 0
BBX 6 9 1 0
BITMAP
d8
00
8c
8c
8c
8c
88
90
60
ENDCHAR
STARTCHAR Yacute
ENCODING 221
SWIDTH 669 0
DWIDTH 8 0
BBX 7 10 1 0
BITMAP
08
10
00
86
44
28
38
10
10
10
ENDCHAR
STARTCHAR Thorn
ENCODING 222
SWIDTH 750 0
DWIDTH 9 0
BBX 5 9 2 0
BITMAP
80
80
f0
c8
88
88
f0
80
80
ENDCHAR
STARTCHAR germandbls
ENCODING 223
SWIDTH 750 0
DWIDTH 9 0
BBX 6 9 2 0
BITMAP
70
88
88
b0
98
84
84
84
b8
ENDCHAR
STARTCHAR agrave
ENCODING 224
SWIDTH 564 0
DWIDTH 7 0
BBX 6 9 1 0
BITMAP
40
20
00
70
08
78
8c
8c
7c
ENDCHAR
STARTCHAR aacute
ENCODING 225
SWIDTH 564 0
DWIDTH 7 0
BBX 6 9 1 0
BITMAP
10
20
00
70
08
78
8c
8c
7c
ENDCHAR
STARTCHAR acircumflex
ENCODING 226
SWIDTH 564 0
DWIDTH 7 0
BBX 6 9 1 0
BITMAP
20
50
00
70
08
78
8c
8c
7c
ENDCHAR
STARTCHAR atilde
ENCODING 227
SWIDTH 564 0
DWIDTH 7 0
BBX 6 9 1 0
BITMAP
68
b0
00
70
08
78
8c
8c
7c
ENDCHAR
STARTCHAR adieresis
ENCODING 228
SWIDTH 564 0
DWIDTH 7 0
BBX 6 8 1 0
BITMAP
d8
00
70
08
78
8c
8c
7c
ENDCHAR
STARTCHAR aring
ENCODING 229
SWIDTH 564 0
DWIDTH 7 0
BBX 6 10 1 0
BITMAP
20
50
20
00
70
08
78
8c
8c
7c
ENDCHAR
STARTCHAR ae
ENCODING 230
SWIDTH 564 0
DWIDTH 7 0
BBX 9 6 0 0
BITMAP
7700
0c80
7f80
8800
8800
7700
ENDCHAR
STARTCHAR ccedilla
ENCODING 231
SWIDTH 530 0
DWIDTH 6 0
BBX 5 8 1 -2
BITMAP
78
c8
80
80
c0
78
10
30
ENDCHAR
STARTCHAR egrave
ENCODING 232
SWIDTH 545 0
DWIDTH 7 0
BBX 5 9 1 0
BITMAP
40
20
00
70
d8
b0
c0
c8
70
ENDCHAR
STARTCHAR eacute
ENCODING 233
SWIDTH 545 0
DWIDTH 7 0
BBX 5 9 1 0
BITMAP
10
20
00
70
d8
b0
c0
c8
70
ENDCHAR
STARTCHAR ecircumflex
ENCODING 234
SWIDTH 545 0
DWIDTH 7 0
BBX 5 9 1 0
BITMAP
20
50
00
70
d8
b0
c0
c8
70
ENDCHAR
STARTCHAR edieresis
ENCODING 235
SWIDTH 545 0
DWIDTH 7 0
BBX 5 8 1 0
BITMAP
d8
00
70
d8
b0
c0
c8
70
ENDCHAR
STARTCHAR igrave
ENCODING 236
SWIDTH 280 0
DWIDTH 3 0
BBX 2 8 1 0
BITMAP
80
40
00
c0
40
40
40
40
ENDCHAR
STARTCHAR iacute
ENCODING 237
SWIDTH 280 0
DWIDTH 3 0
BBX 3 8 1 0
BITMAP
20
40
00
c0
40
40
40
40
ENDCHAR
STARTCHAR icircumflex
ENCODING 238
SWIDTH 280 0
DWIDTH 3 0
BBX 3 8 1 0
BITMAP
40
a0
00
c0
40
40
40
40
ENDCHAR
STARTCHAR idieresis
ENCODING 239
SWIDTH 280 0
DWIDTH 3 0
BBX 5 7 0 0
BITMAP
d8
00
60
20
20
20
20
ENDCHAR
STARTCHAR eth
ENCODING 240
SWIDTH 553 0
DWIDTH 7 0
BBX 6 10 1 0
BITMAP
d8
20
d0
08
38
68
cc
88
98
70
ENDCHAR
STARTCHAR ntilde
ENCODING 241
SWIDTH 498 0
DWIDTH 6 0
BBX 5 9 1 0
BITMAP
68
b0
00
b0
f8
c8
c8
88
88
ENDCHAR
STARTCHAR ograve
ENCODING 242
SWIDTH 553 0
DWIDTH 7 0
BBX 6 9 1 0
BITMAP
40
20
00
30
68
cc
88
98
70
ENDCHAR
STARTCHAR oacute
ENCODING 243
SWIDTH 553 0
DWIDTH 7 0
BBX 6 9 1 0
BITMAP
10
20
00
30
68
cc
88
98
70
ENDCHAR
STARTCHAR ocircumflex
ENCODING 244
SWIDTH 553 0
DWIDTH 7 0
BBX 6 9 1 0
BITMAP
20
50
00
30
68
cc
88
98
70
ENDCHAR
STARTCHAR otilde
ENCODING 245
SWIDTH 553 0
DWIDTH 7 0
BBX 6 9 1 0
BITMAP
68
b0
00
30
68
cc
88
98
70
ENDCHAR
STARTCHAR odieresis
ENCODING 246
SWIDTH 553 0
DWIDTH 7 0
BBX 6 8 1 0
BITMAP
d8
00
30
68
cc
88
98
70
ENDCHAR
STARTCHAR divide 
ENCODING 247
SWIDTH 545 0
DWIDTH 7 0
BBX 5 7 1 0
BITMAP
20
20
00
f8
00
20
20
ENDCHAR
STARTCHAR oslash
ENCODING 248
SWIDTH 553 0
DWIDTH 7 0
BBX 7 7 0 0
BITMAP
02
3c
4c
54
64
4c
b8
ENDCHAR
STARTCHAR ugrave
ENCODING 249
SWIDTH 573 0
DWIDTH 7 0
BBX 6 9 1 0
BITMAP
40
20
00
98
98
88
98
b8
ec
ENDCHAR
STARTCHAR uacute
ENCODING 250
SWIDTH 573 0
DWIDTH 7 0
BBX 6 9 1 0
BITMAP
10
20
00
98
98
88
98
b8
ec
ENDCHAR
STARTCHAR ucircumflex
ENCODING 251
SWIDTH 573 0
DWIDTH 7 0
BBX 6 9 1 0
BITMAP
20
50
00
98
98
88
98
b8
ec
ENDCHAR
STARTCHAR udieresis
ENCODING 252
SWIDTH 573 0
DWIDTH 7 0
BBX 6 8 1 0
BITMAP
d8
00
98
98
88
98
b8
ec
ENDCHAR
STARTCHAR yacute
ENCODING 253
SWIDTH 626 0
DWIDTH 8 0
BBX 6 10 1 -2
BITMAP
08
10
00
84
44
28
38
18
10
30
ENDCHAR
STARTCHAR thorn
ENCODING 254
SWIDTH 750 0
DWIDTH 9 0
BBX 5 10 2 -2
BITMAP
80
80
b0
e8
88
88
c8
b0
80
80
ENDCHAR
STARTCHAR ydieresis
ENCODING 255
SWIDTH 626 0
DWIDTH 8 0
BBX 6 9 1 -2
BITMAP
6c
00
84
44
28
38
18
10
30
ENDCHAR
ENDFONT
